# xmcd CD database file
#
# Track frame offsets:
#	150
#	17472
#	33117
#	47447
#	61155
#	78015
#	95665
#	109265
#	123067
#	140255
#	156577
#	171722
#	187742
#
# Disc length: 2688 seconds
#
# Revision: 0
# Processed by: cddbd v1.5.1PL2 Copyright (c) Steve Scherf et al.
# Submitted via: CDex 1.51
#
DISCID=9a0a7e0d
DTITLE=Luiz Claudio e Giuliano - CD Promocional
DYEAR=2005
DGENRE=Country
TTITLE0=La vou eu
TTITLE1=Dependente de voce
TTITLE2=Foi covardia
TTITLE3=Eu sou peao
TTITLE4=Quando rola a paixao
TTITLE5=Eu e o abandono
TTITLE6=Fala
TTITLE7=Deixa rolar
TTITLE8=Sou mais eu sem voce
TTITLE9=Distante
TTITLE10=Um homem que chora a toa
TTITLE11=Daniela
TTITLE12=Trampo
EXTD=YEAR: 2005
EXTT0=
EXTT1=
EXTT2=
EXTT3=
EXTT4=
EXTT5=
EXTT6=
EXTT7=
EXTT8=
EXTT9=
EXTT10=
EXTT11=
EXTT12=
PLAYORDER=
